<svg t="1610988577530" class="icon" viewBox="0 0 1024 1024" version="1.1" xmlns="http://www.w3.org/2000/svg" p-id="1971" width="64" height="64"><path d="M139.636364 186.181818a46.545455 46.545455 0 0 0-46.545455 46.545455v558.545454a46.545455 46.545455 0 0 0 93.090909 0V744.727273h651.636364v46.545454a46.545455 46.545455 0 0 0 93.090909 0v-93.090909a46.545455 46.545455 0 0 0-46.545455-46.545454H186.181818V232.727273a46.545455 46.545455 0 0 0-46.545454-46.545455z m186.181818 0a93.090909 93.090909 0 1 0 0 186.181818 93.090909 93.090909 0 0 0 0-186.181818zM558.545455 279.272727a93.090909 93.090909 0 0 0-93.09091 93.090909v93.090909H279.272727a46.545455 46.545455 0 0 0 0 93.09091h651.636364V465.454545a186.181818 186.181818 0 0 0-186.181818-186.181818H558.545455z" p-id="1972" fill="#F0A895"></path></svg>