<svg t="1610988715407" class="icon" viewBox="0 0 1024 1024" version="1.1" xmlns="http://www.w3.org/2000/svg" p-id="4559" width="64" height="64"><path d="M917.333333 725.333333H896v-42.666666a384 384 0 0 0-341.333333-381.44V234.666667a21.333333 21.333333 0 0 0-21.333334-21.333334h-42.666666a21.333333 21.333333 0 0 0-21.333334 21.333334v66.56A384 384 0 0 0 128 682.666667v42.666666h-21.333333a21.333333 21.333333 0 0 0-21.333334 21.333334v42.666666a21.333333 21.333333 0 0 0 21.333334 21.333334h810.666666a21.333333 21.333333 0 0 0 21.333334-21.333334v-42.666666a21.333333 21.333333 0 0 0-21.333334-21.333334z" p-id="4560" fill="#F0A895"></path></svg>