<svg t="1610988805811" class="icon" viewBox="0 0 1024 1024" version="1.1" xmlns="http://www.w3.org/2000/svg" p-id="6309" width="64" height="64"><path d="M336.248791 42.148177H195.621064c-77.739971 0-152.402457 51.246831-152.402457 128.986803V311.762707c0 77.739971 74.662485 152.402457 152.402457 152.402457h140.627727c142.233373 0 128.986803-4.415523 128.986803-152.402457V171.13498c0-77.739971-51.246831-128.986803-128.986803-128.986803m0 515.94721H195.621064c-77.739971 0-152.402457 51.246831-152.402457 128.986803v140.627728c0 77.739971 74.662485 152.402457 152.402457 152.402456h140.627727c77.739971 0 128.986803-74.662485 128.986803-152.402456V686.948386c0-136.212204 7.359206-128.852999-128.986803-128.852999M852.062198 42.148177H711.43447c-77.739971 0-152.402457 51.246831-152.402456 128.986803V311.762707c0 142.233373 10.169084 152.402457 152.402456 152.402457h140.627728c77.739971 0 128.986803-74.662485 128.986802-152.402457V171.13498c0-77.739971-51.246831-128.986803-128.986802-128.986803m0 515.94721H711.43447c-142.233373 0-152.402457-13.24657-152.402456 128.986803v140.627728c0 77.739971 74.662485 152.402457 152.402456 152.402456h140.627728c77.739971 0 128.986803-74.662485 128.986802-152.402456V686.948386c0-77.606168-51.246831-128.852999-128.986802-128.852999m82.155494 253.959493" fill="#F0A895" p-id="6310"></path></svg>