<svg t="1610639186546" class="icon" viewBox="0 0 1024 1024" version="1.1" xmlns="http://www.w3.org/2000/svg" p-id="2589" width="32" height="32"><path d="M924 483.28l-44-169.68c-19.2-70.4-83.2-121.6-153.6-121.6H704V128c0-35.34-28.66-64-64-64H384c-35.34 0-64 28.66-64 64v64h-22.4c-70.4 0-134.4 51.2-153.6 121.6l-44 169.68C42.82 496.08 0 546.94 0 608v96c0 47.26 25.9 88.08 64 110.24V896c0 35.34 28.66 64 64 64h64c35.34 0 64-28.66 64-64v-64h512v64c0 35.34 28.66 64 64 64h64c35.34 0 64-28.66 64-64v-81.76c38.1-22.18 64-63 64-110.24v-96c0-61.06-42.82-111.92-100-124.72zM192 704c-35.34 0-64-28.66-64-64s28.66-64 64-64 64 28.66 64 64-28.66 64-64 64z m41.1-224l34.4-132.72c4.46-16.32 19.18-27.28 30.12-27.28h428.8c10.94 0 25.66 10.96 29.7 25.72L790.9 480h-557.8zM832 704c-35.34 0-64-28.66-64-64s28.66-64 64-64 64 28.66 64 64-28.66 64-64 64z" p-id="2590" fill="#F0A895"></path></svg>