<svg t="1610988745666" class="icon" viewBox="0 0 1024 1024" version="1.1" xmlns="http://www.w3.org/2000/svg" p-id="5447" width="64" height="64"><path d="M1006.933333 276.48C866.986667 143.36 686.08 68.266667 512 68.266667 334.506667 68.266667 153.6 143.36 17.066667 273.066667c-10.24 10.24-17.066667 23.893333-17.066667 40.96s6.826667 30.72 17.066667 40.96l102.4 105.813333c20.48 20.48 61.44 20.48 81.92 0 30.72-30.72 78.506667-54.613333 116.053333-71.68 20.48-10.24 27.306667-34.133333 27.306667-54.613333L341.333333 235.52c64.853333-20.48 119.466667-30.72 170.666667-30.72s109.226667 10.24 170.666667 30.72v98.986667c0 27.306667 10.24 47.786667 27.306666 54.613333 37.546667 20.48 75.093333 44.373333 105.813334 71.68 10.24 10.24 23.893333 17.066667 40.96 17.066667s30.72-6.826667 40.96-17.066667l109.226666-102.4c10.24-10.24 17.066667-23.893333 17.066667-40.96s-6.826667-27.306667-17.066667-40.96zM839.68 576.853333c0-27.306667-13.653333-54.613333-34.133333-71.68-6.826667-3.413333-13.653333-6.826667-20.48-3.413333-6.826667 3.413333-10.24 10.24-6.826667 17.066667 3.413333 20.48 6.826667 40.96 6.826667 58.026666 0 34.133333-6.826667 68.266667-20.48 98.986667-3.413333 6.826667 0 13.653333 3.413333 17.066667 10.24 10.24 13.653333 23.893333 13.653333 37.546666v102.4c0 13.653333-6.826667 27.306667-17.066666 37.546667-10.24 10.24-23.893333 13.653333-40.96 13.653333-17.066667-3.413333-81.92-10.24-136.533334-40.96-3.413333-3.413333-6.826667-3.413333-13.653333 0C399.36 890.88 238.933333 750.933333 238.933333 580.266667c0-23.893333 3.413333-47.786667 10.24-68.266667 3.413333-6.826667 0-13.653333-6.826666-17.066667-6.826667-3.413333-13.653333-3.413333-20.48 0C191.146667 512 170.666667 542.72 170.666667 580.266667l-61.44 102.4c-17.066667 30.72-23.893333 68.266667-23.893334 102.4L68.266667 935.253333c0 3.413333 0 10.24 3.413333 13.653334s10.24 6.826667 13.653333 6.826666h819.2c10.24 0 17.066667-6.826667 17.066667-17.066666V785.066667c0-34.133333-6.826667-71.68-23.893333-102.4l-58.026667-105.813334z" fill="#F0A895" p-id="5448"></path><path d="M689.493333 727.04c-34.133333 10.24-75.093333 17.066667-116.053333-6.826667-6.826667-3.413333-10.24-3.413333-17.066667 0s-10.24 6.826667-10.24 13.653334c0 95.573333 167.253333 116.053333 184.32 119.466666h3.413334c3.413333 0 6.826667 0 10.24-3.413333 3.413333-3.413333 6.826667-6.826667 6.826666-13.653333v-102.4c0-10.24-6.826667-17.066667-17.066666-17.066667-13.653333 0-30.72 3.413333-44.373334 10.24z" fill="#F0A895" p-id="5449"></path><path d="M512 341.333333c-133.12 0-238.933333 105.813333-238.933333 238.933334s105.813333 238.933333 238.933333 238.933333h3.413333c6.826667 0 10.24-3.413333 13.653334-10.24s3.413333-13.653333 0-17.066667c-10.24-17.066667-17.066667-37.546667-17.066667-58.026666 0-17.066667 10.24-34.133333 23.893333-44.373334 17.066667-10.24 34.133333-10.24 51.2 0 20.48 13.653333 34.133333 13.653333 44.373334 13.653334 13.653333 0 30.72-3.413333 44.373333-10.24 10.24-3.413333 23.893333-6.826667 40.96-10.24 6.826667 0 10.24-3.413333 13.653333-10.24 13.653333-30.72 20.48-61.44 20.48-92.16 0-133.12-105.813333-238.933333-238.933333-238.933334z m0 307.2c-37.546667 0-68.266667-30.72-68.266667-68.266666s30.72-68.266667 68.266667-68.266667 68.266667 30.72 68.266667 68.266667-30.72 68.266667-68.266667 68.266666z" fill="#F0A895" p-id="5450"></path><path d="M512 580.266667m-34.133333 0a34.133333 34.133333 0 1 0 68.266666 0 34.133333 34.133333 0 1 0-68.266666 0Z" fill="#F0A895" p-id="5451"></path></svg>