<svg t="1610988689872" class="icon" viewBox="0 0 1024 1024" version="1.1" xmlns="http://www.w3.org/2000/svg" p-id="4044" width="64" height="64"><path d="M961.143 393.14c-0.434-10.703-9.546-16.571-19.995-19.026-1.498-0.352-836.767-190.354-850.28-191.618-17.451-1.632-27.648 11.538-27.045 26.43 0.16 4.08 2.398 9.5 4.167 12.907l272.44 603.282c6.736 9.387 21.403 17.615 32.783 12.584 21.01-9.287 204.99-149.232 214.659-151.866 5.032-1.37 131.197 69.962 138.165 69.946 11.404-0.032 20.628-9.274 20.606-20.653-0.01-0.98 19.486-184.477 19.486-184.477s189.805-145.238 191.808-147.096 3.342-6.973 3.206-10.413z m-282.527 254.2l-526.634-398.4s508.29 259.472 520.815 266.622 11.745 10.55 11.975 20.043-6.156 111.735-6.156 111.735z" p-id="4045" fill="#F0A895"></path></svg>